<svg width="338" height="48" viewBox="0 0 338 48" fill="none" xmlns="http://www.w3.org/2000/svg">
<circle cx="19.2537" cy="24" r="18.9619" fill="#0180FF"/>
<path d="M66.3368 36.311H50.2571V11.0158H55.6422V31.5706H66.3368V36.311ZM65.7955 43.4786L66.516 39.1553C66.9332 39.3449 67.5779 39.4587 68.033 39.4587C69.2844 39.4587 70.1188 39.1174 70.5739 38.1314L71.2565 36.5765L63.8234 17.9938H68.9811L73.7595 30.7362L78.5379 17.9938H83.7334L75.1247 39.307C73.7595 42.7581 71.3323 43.6683 68.1847 43.7441C67.6158 43.7441 66.4022 43.6303 65.7955 43.4786ZM101.812 36.311H96.9573V33.9598C95.5162 35.7801 93.5062 36.7661 91.3066 36.7661C86.6799 36.7661 83.1909 33.2771 83.1909 27.1714C83.1909 21.1794 86.642 17.5387 91.3066 17.5387C93.4683 17.5387 95.5162 18.4868 96.9573 20.3451V11.0158H101.812V36.311ZM92.7857 32.4807C94.4164 32.4807 96.1609 31.6085 96.9573 30.3949V23.9099C96.1609 22.6964 94.4164 21.8241 92.7857 21.8241C90.0551 21.8241 88.159 23.9858 88.159 27.1714C88.159 30.3191 90.0551 32.4807 92.7857 32.4807ZM107.46 16.0218C105.905 16.0218 104.578 14.7324 104.578 13.1396C104.578 11.5468 105.905 10.2953 107.46 10.2953C109.053 10.2953 110.342 11.5468 110.342 13.1396C110.342 14.7324 109.053 16.0218 107.46 16.0218ZM109.887 36.311H105.071V17.9938H109.887V36.311ZM128.96 36.311H124.144V34.4148C122.892 35.8939 120.73 36.7661 118.341 36.7661C115.421 36.7661 111.97 34.7941 111.97 30.6983C111.97 26.4129 115.421 24.7822 118.341 24.7822C120.768 24.7822 122.93 25.5786 124.144 27.0197V24.5547C124.144 22.6964 122.551 21.4828 120.124 21.4828C118.152 21.4828 116.331 22.2034 114.776 23.6445L112.956 20.421C115.194 18.4489 118.076 17.5387 120.958 17.5387C125.13 17.5387 128.96 19.2074 128.96 24.4788V36.311ZM120.275 33.5047C121.83 33.5047 123.347 32.9737 124.144 31.9119V29.6364C123.347 28.5746 121.83 28.0436 120.275 28.0436C118.379 28.0436 116.824 29.0297 116.824 30.8121C116.824 32.5187 118.379 33.5047 120.275 33.5047Z" fill="#001642"/>
<rect x="174.767" y="3.06494" width="0.601917" height="48" transform="rotate(30 174.767 3.06494)" fill="#ACB6CC"/>
<path d="M209.562 21.3331C211 21.9847 212.265 22.6709 213.327 23.3811H213.334C214.43 24.1121 215.358 25.0671 216.089 26.2153C216.834 27.3841 217.209 28.7978 217.209 30.4183C217.209 32.1767 216.737 33.7972 215.803 35.2419C214.868 36.6831 213.503 37.8347 211.744 38.6656C209.996 39.4896 207.931 39.9068 205.6 39.9068C204.3 39.9068 202.911 39.7862 201.477 39.5483C200.056 39.3138 198.725 39.0173 197.529 38.669C196.332 38.3208 195.436 38.014 194.867 37.7588L194.488 37.5864L195.76 33.0421L196.057 33.3972C196.091 33.4386 199.722 37.6761 205.711 37.6761C210.738 37.6761 212.031 35.6108 212.227 33.8799L212.248 33.6593C212.255 33.5558 212.258 33.4524 212.258 33.349C212.258 32.3249 211.975 31.4354 211.41 30.7044C210.817 29.939 210.089 29.3046 209.238 28.8115C208.348 28.2978 207.231 27.7496 205.911 27.1807C205.79 27.1255 205.669 27.0738 205.535 27.0221L203.373 26.1084C203.149 26.0291 202.842 25.9015 202.48 25.7291C201.159 25.1775 199.953 24.5396 198.898 23.8397C197.815 23.1191 196.888 22.1744 196.143 21.0262C195.384 19.8574 194.998 18.4713 194.998 16.9025C194.998 15.1958 195.474 13.6374 196.412 12.2755C197.343 10.9205 198.67 9.84817 200.36 9.08618C202.514 8.11733 205.128 7.7691 208.131 8.04838C209.193 8.14836 210.283 8.34489 211.365 8.63107C213.048 9.07929 214.434 9.57579 215.479 10.1102L215.837 10.2964L214.723 14.3546L214.427 14.058C214.386 14.0167 210.265 9.94815 205.869 9.94815C203.507 9.94815 199.994 11.0653 199.994 14.1408C199.994 15.0579 200.253 15.8647 200.759 16.5405C201.287 17.2473 201.98 17.8473 202.814 18.3231C203.683 18.8196 204.797 19.3643 206.121 19.9332L206.417 20.0539L208.61 20.9642L209.562 21.3331Z" fill="#05403E"/>
<path fill-rule="evenodd" clip-rule="evenodd" d="M289.762 33.2644C289.738 33.3023 287.19 37.0123 283.711 37.1743C282.349 37.1743 281.125 36.8088 280.074 36.0917C279.022 35.3745 278.195 34.2712 277.616 32.8093C277.105 31.5267 276.812 29.9372 276.747 28.0822H291.452L291.462 27.8478C291.538 26.11 291.3 23.5034 290.6 21.8829C289.942 20.359 288.89 19.1315 287.476 18.242C286.063 17.3524 284.27 16.9007 282.146 16.9007C280.022 16.9007 277.902 17.3972 276.147 18.3764C274.388 19.3591 272.985 20.7693 271.978 22.5656C270.971 24.3619 270.461 26.4686 270.461 28.827C270.461 31.0267 270.93 32.992 271.858 34.6677C272.785 36.3468 274.081 37.6536 275.705 38.5569C277.326 39.4568 279.184 39.9119 281.222 39.9119C283.26 39.9119 285.122 39.4499 286.835 38.5397C288.549 37.6294 290.066 36.1744 291.342 34.2229L291.483 34.0091L289.89 33.0817L289.762 33.2713V33.2644ZM281.777 18.6798C282.77 18.6798 283.608 19.0246 284.27 19.7073C286.011 21.5071 286.063 25.1101 286.056 25.8239L276.757 26.2548C276.778 25.8377 276.812 25.417 276.857 25.0102C277.281 22.1208 278.478 18.6798 281.777 18.6798Z" fill="#05403E"/>
<path d="M307.457 17.2697C306.823 17.1042 306.037 16.9007 305.085 16.9007C304.054 16.9007 303.075 17.1903 302.171 17.7592C301.285 18.3178 300.506 19.1177 299.858 20.1314C299.682 20.4072 299.513 20.7003 299.358 21.0072V16.9007H298.765L293.545 18.2557V18.4454L293.531 26.2859L293.545 40.0395H294.169L299.513 38.6948V26.61C299.513 24.6309 299.982 23.1517 300.875 22.338C301.116 22.1174 301.378 21.9277 301.658 21.7726C302.73 21.183 303.957 21.1761 305.316 21.7588C305.678 21.9002 306.088 22.1898 306.53 22.6139L307.167 23.2276L308.271 17.4662L307.819 17.3558C307.709 17.3283 307.592 17.2972 307.467 17.2662L307.457 17.2697Z" fill="#05403E"/>
<path fill-rule="evenodd" clip-rule="evenodd" d="M337.467 38.1902C336.888 36.3525 336.557 34.1459 336.557 32.1358V24.878L336.55 24.4401H336.543C336.467 21.9748 335.743 20.0992 334.388 18.8614C332.958 17.5546 330.782 16.8926 327.924 16.8926C326.034 16.8926 324.407 17.1926 323.083 17.7856C321.766 18.3752 320.487 19.2579 319.287 20.406L319.118 20.5681L320.555 22.2024L320.738 22.0059C320.773 21.9679 324.172 18.3994 327.603 19.1924C328.068 19.3303 328.465 19.5268 328.782 19.782C329.468 20.3267 329.93 21.0336 330.158 21.8817C330.396 22.7609 330.513 23.9056 330.513 25.2813V27.3122C329.186 27.4294 328.099 27.5294 327.282 27.6121C324.541 27.9017 322.355 28.643 320.783 29.8188C319.156 31.0324 318.332 32.615 318.332 34.5286C318.332 35.0492 318.397 35.5492 318.532 36.0215H318.525L318.58 36.187C318.597 36.2387 318.614 36.2905 318.632 36.3456L318.68 36.487C318.69 36.5215 319.918 40.0349 324.227 40.0349C327.693 40.0349 330.158 37.9213 331.009 37.0697C331.251 38.0627 331.747 39.7728 331.771 39.859L331.823 40.0349H332.42L337.612 38.6695L337.464 38.1902H337.467ZM330.516 34.2769V28.7884C329.211 28.9883 328.112 29.2674 327.251 29.6222C326.262 30.0291 325.486 30.5842 324.945 31.2772C324.417 31.9496 324.152 32.8115 324.152 33.839C324.152 34.9768 324.417 35.8353 324.938 36.3904C325.458 36.9455 326.117 37.2145 326.948 37.2145C327.644 37.2145 328.372 37.0111 329.11 36.6111C329.979 36.1422 330.516 35.2492 330.516 34.2769Z" fill="#05403E"/>
<path d="M257.714 17.6091C258.783 17.1367 259.966 16.8953 261.227 16.8953L261.224 16.9057C263.524 16.9057 265.317 17.5608 266.554 18.8537C267.789 20.1398 268.413 22.0982 268.413 24.6703V38.6998L263.069 40.0445H262.445V23.7877C262.438 22.7257 262.017 21.7327 261.258 20.988C260.503 20.2536 259.486 19.8502 258.428 19.8674C256.304 19.9088 254.573 21.7362 254.573 23.9463V38.6963L249.198 40.041H248.601V23.7842C248.598 22.7223 248.177 21.7293 247.415 20.9845C246.66 20.2467 245.646 19.8571 244.585 19.864C242.457 19.9053 240.726 21.7327 240.726 23.9428V38.6929L235.351 40.0376H234.758V37.1482C233.82 38.0412 231.345 39.91 227.035 39.91C221.649 39.91 219.318 37.3827 219.243 31.4558V18.2469L224.618 16.9022H225.211V22.4913C225.214 25.7254 225.228 30.0042 225.273 32.0143C225.318 33.9865 226.356 35.7036 227.986 36.4966C228.548 36.7655 229.148 36.9172 229.769 36.9448C231.083 37 232.334 36.5345 233.286 35.6243C234.237 34.7175 234.761 33.49 234.765 32.1764V18.2469L240.14 16.9022H240.733V19.7261C240.854 19.6088 240.978 19.495 241.099 19.3847C241.888 18.6744 242.823 18.078 243.874 17.6125C244.943 17.1401 246.126 16.8988 247.388 16.8988C249.687 16.8988 251.48 17.5539 252.718 18.8468C253.163 19.3089 253.532 19.8674 253.818 20.5122L253.825 20.5053C254.183 20.0984 254.563 19.7192 254.939 19.3813C255.728 18.671 256.662 18.0745 257.714 17.6091Z" fill="#05403E"/>
<path d="M310.306 18.2469V40.0341H310.968L316.284 38.586L316.288 16.8953H315.684L310.306 18.2469Z" fill="#05403E"/>
<path d="M316.284 15.1376L310.306 16.6546V11.9862L316.288 10.576L316.284 15.1376Z" fill="#05403E"/>
</svg>
